<svg width="17" height="23" viewBox="0 0 17 23" fill="none" xmlns="http://www.w3.org/2000/svg">
<path d="M13.997 2.33016C13.2066 1.55621 12.2672 0.95101 11.2358 0.551329C10.2044 0.151647 9.10243 -0.0341718 7.99696 0.00516098C5.92426 0.0758983 3.95357 0.921887 2.47465 2.37581C0.995725 3.82973 0.116268 5.78572 0.01021 7.85691C-0.043775 8.93757 0.116712 10.0182 0.482415 11.0366C0.848118 12.0549 1.4118 12.9907 2.14096 13.7902C4.33189 16.1148 6.11583 18.7917 7.41796 21.7087L7.56196 22.0462C7.61981 22.181 7.71594 22.2959 7.83846 22.3767C7.96097 22.4574 8.10448 22.5005 8.25121 22.5005C8.39794 22.5005 8.54145 22.4574 8.66396 22.3767C8.78648 22.2959 8.88261 22.181 8.94046 22.0462L9.26071 21.2962C10.4979 18.5423 12.2034 16.024 14.3015 13.8532C15.7667 12.2732 16.5553 10.1825 16.4984 8.02847C16.4415 5.87443 15.5436 3.82826 13.997 2.32791V2.33016ZM8.25121 11.2507C7.65787 11.2507 7.07785 11.0747 6.5845 10.7451C6.09115 10.4154 5.70663 9.94689 5.47957 9.39871C5.25251 8.85053 5.1931 8.24733 5.30885 7.66539C5.42461 7.08345 5.71033 6.5489 6.12989 6.12934C6.54945 5.70978 7.084 5.42406 7.66594 5.3083C8.24788 5.19255 8.85108 5.25196 9.39926 5.47902C9.94744 5.70608 10.416 6.0906 10.7456 6.58395C11.0753 7.0773 11.2512 7.65732 11.2512 8.25066C11.2512 9.04631 10.9351 9.80937 10.3725 10.372C9.80992 10.9346 9.04686 11.2507 8.25121 11.2507Z" fill="#C49A6C"/>
</svg>
